<svg width="47" height="22" viewBox="0 0 47 22" fill="none" xmlns="http://www.w3.org/2000/svg">
<path d="M3.05661 12.3408L37.7464 12.3408L27.1288 18.8763C26.6324 19.1824 26.3935 19.577 26.4648 19.9734C26.5361 20.3697 26.9118 20.7354 27.5091 20.9898C28.1064 21.2442 28.8765 21.3666 29.6499 21.3301C30.4233 21.2935 31.1368 21.101 31.6332 20.7949L46.2579 11.8012C46.3563 11.7296 46.4443 11.6545 46.5212 11.5763C46.5212 11.5014 46.5212 11.4564 46.7259 11.3815C46.8585 11.2096 46.9279 11.0266 46.9307 10.8418C46.9279 10.657 46.8585 10.4741 46.7259 10.3022C46.7259 10.2273 46.7259 10.1823 46.5212 10.1074C46.4443 10.0292 46.3563 9.95405 46.2579 9.88251L31.6332 0.888765C31.3582 0.719559 31.0139 0.583483 30.6246 0.490217C30.2353 0.39695 29.8107 0.348782 29.381 0.34914C28.6976 0.348455 28.0353 0.470434 27.5091 0.693901C27.2129 0.819736 26.9681 0.974283 26.7886 1.14868C26.6092 1.32308 26.4986 1.51391 26.4633 1.71024C26.428 1.90656 26.4686 2.10454 26.5828 2.29281C26.697 2.48108 26.8826 2.65596 27.1288 2.80743L37.7464 9.34289L3.05661 9.34289C2.28087 9.34289 1.5369 9.50081 0.988373 9.78192C0.439838 10.063 0.13168 10.4443 0.13168 10.8418C0.13168 11.2394 0.439838 11.6207 0.988373 11.9018C1.5369 12.1829 2.28087 12.3408 3.05661 12.3408Z" fill="#157B11"/>
</svg>
