<svg width="63" height="29" viewBox="0 0 63 29" fill="none" xmlns="http://www.w3.org/2000/svg">
<path d="M12.3901 26.8104H50.8761V22.4834C50.8721 20.8774 49.4516 19.3377 46.9263 18.202C44.4011 17.0664 40.9773 16.4276 37.406 16.4257H25.8602C22.289 16.4276 18.8652 17.0664 16.3399 18.202C13.8147 19.3377 12.3942 20.8774 12.3901 22.4834V26.8104ZM18.163 8.63728C18.163 9.83538 18.953 11.0066 20.4332 12.0028C21.9133 12.9989 24.017 13.7754 26.4784 14.2339C28.9397 14.6924 31.6481 14.8123 34.261 14.5786C36.874 14.3448 39.2741 13.7679 41.1579 12.9207C43.0418 12.0735 44.3247 10.9942 44.8444 9.81908C45.3642 8.644 45.0974 7.426 44.0779 6.3191C43.0584 5.21221 41.3319 4.26612 39.1167 3.6005C36.9016 2.93487 34.2973 2.57959 31.6331 2.57959C28.0606 2.57959 24.6345 3.21781 22.1083 4.35385C19.5822 5.48988 18.163 7.03068 18.163 8.63728Z" fill="#EDEDED"/>
</svg>
