<svg width="46" height="54" viewBox="0 0 46 54" fill="none" xmlns="http://www.w3.org/2000/svg">
<path d="M11.0324 17.8923C10.4945 13.7148 12.9926 9.96229 16.8088 8.58749C17.4861 8.34335 18.2167 8.41285 18.852 8.78182C19.4873 9.15078 19.9794 9.79146 20.228 10.5733L21.4531 14.4254C21.6503 15.0451 21.686 15.7201 21.5555 16.3639C21.425 17.0077 21.1344 17.5908 20.7208 18.0384L17.0764 21.9735C16.8968 22.1679 16.7629 22.4138 16.6879 22.6873C16.6128 22.9609 16.5992 23.2527 16.6483 23.5343L16.6821 23.7069L16.7694 24.1386C17.2226 26.2362 17.9132 28.2523 18.8226 30.1326C19.8131 32.1307 21.0424 33.9503 22.4726 35.5355L22.5853 35.655C22.7672 35.8455 22.9879 35.9771 23.2258 36.037C23.4637 36.0969 23.7107 36.0832 23.9428 35.9971L28.6546 34.247C29.1901 34.0488 29.7636 34.0437 30.3016 34.2325C30.8395 34.4212 31.3174 34.7952 31.6738 35.3064L33.9044 38.4976C34.8338 39.8259 34.7212 41.7785 33.6538 42.9508C30.7331 46.1619 26.717 46.8195 23.9231 44.1728C20.4984 40.9157 17.6114 36.9432 15.4063 32.4538C13.1832 27.9679 11.6984 23.0276 11.0296 17.8923H11.0324ZM19.6027 23.7534L22.6219 20.4858C23.4495 19.591 24.0313 18.4249 24.2928 17.1374C24.5542 15.8498 24.4834 14.4995 24.0892 13.2598L22.8669 9.40772C22.3666 7.8345 21.3763 6.54542 20.0979 5.80316C18.8195 5.06089 17.3491 4.92131 15.9864 5.41284C11.2464 7.12303 7.44147 12.1341 8.24696 18.3937C8.81024 22.7638 10.1086 28.3228 12.9729 34.1275C15.3519 38.9682 18.4662 43.2513 22.16 46.763C26.3508 50.7313 31.9442 49.3764 35.5774 45.3849C36.6169 44.2436 37.248 42.6776 37.3416 41.0064C37.4353 39.3353 36.9846 37.685 36.0815 36.3923L33.8509 33.1977C33.1373 32.1765 32.1813 31.4299 31.1055 31.0536C30.0296 30.6773 28.883 30.6885 27.8125 31.0857L23.9005 32.5368C22.8905 31.3089 22.0058 29.9459 21.2644 28.4756C20.5482 26.989 19.9901 25.4042 19.6027 23.7567V23.7534Z" fill="#C6C6C6"/>
</svg>
