<svg width="52" height="54" viewBox="0 0 52 54" fill="none" xmlns="http://www.w3.org/2000/svg">
<path d="M12.7021 17.8923C12.0992 13.7148 14.8988 9.96229 19.1755 8.58749C19.9345 8.34335 20.7533 8.41285 21.4653 8.78182C22.1772 9.15078 22.7286 9.79146 23.0072 10.5733L24.3802 14.4254C24.6012 15.0451 24.6412 15.7201 24.495 16.3639C24.3487 17.0077 24.023 17.5908 23.5596 18.0384L19.4754 21.9735C19.2741 22.1679 19.124 22.4138 19.04 22.6873C18.9559 22.9609 18.9406 23.2527 18.9956 23.5343L19.0335 23.7069L19.1313 24.1386C19.6393 26.2362 20.4132 28.2523 21.4323 30.1326C22.5423 32.1307 23.92 33.9503 25.5228 35.5355L25.649 35.655C25.8529 35.8455 26.1002 35.9771 26.3668 36.037C26.6334 36.0969 26.9103 36.0832 27.1703 35.9971L32.4507 34.247C33.0508 34.0488 33.6935 34.0437 34.2964 34.2325C34.8993 34.4212 35.4348 34.7952 35.8342 35.3064L38.334 38.4976C39.3755 39.8259 39.2493 41.7785 38.0531 42.9508C34.78 46.1619 30.2792 46.8195 27.1482 44.1728C23.3103 40.9157 20.0749 36.9432 17.6037 32.4538C15.1125 27.9679 13.4484 23.0276 12.6989 17.8923H12.7021ZM22.3065 23.7534L25.69 20.4858C26.6175 19.591 27.2695 18.4249 27.5625 17.1374C27.8555 15.8498 27.7761 14.4995 27.3344 13.2598L25.9646 9.40772C25.4039 7.8345 24.2941 6.54542 22.8614 5.80316C21.4288 5.06089 19.781 4.92131 18.2539 5.41284C12.9419 7.12303 8.67784 12.1341 9.58053 18.3937C10.2118 22.7638 11.6668 28.3228 14.8767 34.1275C17.5428 38.9682 21.0329 43.2513 25.1724 46.763C29.8689 50.7313 36.1372 49.3764 40.2088 45.3849C41.3738 44.2436 42.081 42.6776 42.1859 41.0064C42.2909 39.3353 41.7859 37.685 40.7738 36.3923L38.274 33.1977C37.4743 32.1765 36.403 31.4299 35.1973 31.0536C33.9916 30.6773 32.7066 30.6885 31.507 31.0857L27.123 32.5368C25.991 31.3089 24.9996 29.9459 24.1687 28.4756C23.3662 26.989 22.7407 25.4042 22.3065 23.7567V23.7534Z" fill="#C6C6C6"/>
</svg>
