<svg width="48" height="47" viewBox="0 0 48 47" fill="none" xmlns="http://www.w3.org/2000/svg">
<path d="M15.3789 21.9423C15.3789 22.7526 15.0729 23.5297 14.5284 24.1026C13.9838 24.6755 13.2452 24.9974 12.4751 24.9974C11.705 24.9974 10.9664 24.6755 10.4218 24.1026C9.87729 23.5297 9.57136 22.7526 9.57136 21.9423C9.57136 21.132 9.87729 20.355 10.4218 19.782C10.9664 19.2091 11.705 18.8872 12.4751 18.8872C13.2452 18.8872 13.9838 19.2091 14.5284 19.782C15.0729 20.355 15.3789 21.132 15.3789 21.9423ZM26.9939 21.9423C26.9939 22.7526 26.6879 23.5297 26.1434 24.1026C25.5988 24.6755 24.8602 24.9974 24.0901 24.9974C23.32 24.9974 22.5814 24.6755 22.0368 24.1026C21.4923 23.5297 21.1864 22.7526 21.1864 21.9423C21.1864 21.132 21.4923 20.355 22.0368 19.782C22.5814 19.2091 23.32 18.8872 24.0901 18.8872C24.8602 18.8872 25.5988 19.2091 26.1434 19.782C26.6879 20.355 26.9939 21.132 26.9939 21.9423ZM35.7051 24.9974C36.4752 24.9974 37.2138 24.6755 37.7584 24.1026C38.3029 23.5297 38.6089 22.7526 38.6089 21.9423C38.6089 21.132 38.3029 20.355 37.7584 19.782C37.2138 19.2091 36.4752 18.8872 35.7051 18.8872C34.935 18.8872 34.1964 19.2091 33.6518 19.782C33.1073 20.355 32.8014 21.132 32.8014 21.9423C32.8014 22.7526 33.1073 23.5297 33.6518 24.1026C34.1964 24.6755 34.935 24.9974 35.7051 24.9974Z" fill="#C6C6C6"/>
<path d="M7.14673 45.7813L7.2048 45.7691C12.5187 44.6601 15.7651 43.1967 17.275 42.3932C19.4981 43.0171 21.7893 43.3314 24.0901 43.3281C36.9189 43.3281 47.3201 33.7534 47.3201 21.9424C47.3201 10.1313 36.9189 0.556641 24.0901 0.556641C11.2613 0.556641 0.860107 10.1313 0.860107 21.9424C0.860107 27.3193 3.01759 32.2381 6.58049 35.9958C6.33123 38.4097 5.82073 40.7856 5.05893 43.0776L5.05022 43.1112C4.83372 43.7676 4.59743 44.4167 4.3417 45.0573C4.11231 45.6255 4.55658 46.261 5.13443 46.1632C5.80712 46.0474 6.47797 45.9201 7.14673 45.7813ZM9.46973 36.2861C9.5104 35.8388 9.4568 35.3876 9.31275 34.9646C9.1687 34.5416 8.93775 34.1573 8.63635 33.8389C5.55837 30.5883 3.76386 26.4273 3.76386 21.9424C3.76386 12.1905 12.4867 3.61174 24.0901 3.61174C35.6935 3.61174 44.4164 12.1905 44.4164 21.9424C44.4164 31.6973 35.6935 40.273 24.0901 40.273C22.0433 40.2761 20.0049 39.9967 18.0271 39.442C17.3359 39.2472 16.6007 39.3277 15.9625 39.6681C14.8388 40.2669 12.3619 41.4095 8.31403 42.3963C8.87875 40.4017 9.26565 38.3562 9.46973 36.2861Z" fill="#C6C6C6"/>
</svg>
