<svg width="66" height="65" viewBox="0 0 66 65" fill="none" xmlns="http://www.w3.org/2000/svg">
<circle cx="32.968" cy="32.5" r="32.5" fill="#D9D9D9"/>
<path d="M42.3897 46.1223C40.6955 47.7646 38.8458 47.5053 37.0652 46.7274C35.1809 45.9322 33.4522 45.8976 31.4641 46.7274C28.9748 47.7992 27.6609 47.488 26.1742 46.1223C17.7381 37.4269 18.9827 24.1848 28.5599 23.7008C30.8936 23.8218 32.5186 24.9801 33.8843 25.0838C35.9242 24.6689 37.8777 23.4761 40.0559 23.6316C42.6662 23.8391 44.637 24.8763 45.9335 26.7434C40.5399 29.9761 41.8192 37.0811 46.7633 39.0692C45.7779 41.6622 44.4987 44.238 42.3724 46.1396L42.3897 46.1223ZM33.7115 23.5971C33.4522 19.742 36.5811 16.5612 40.1769 16.25C40.6782 20.7101 36.1317 24.0293 33.7115 23.5971Z" fill="black"/>
</svg>
