<svg width="66" height="65" viewBox="0 0 66 65" fill="none" xmlns="http://www.w3.org/2000/svg">
<circle cx="32.734" cy="32.5" r="32.5" fill="#D9D9D9"/>
<g clip-path="url(#clip0_1206_60)">
<path d="M18.2128 20.0618V43.6024L36.121 47.3574V16.5957L18.2128 20.0618ZM27.235 37.3069C21.5421 36.9397 22.1284 26.6781 27.3679 26.5966C32.9809 26.9676 32.4303 37.225 27.235 37.3069ZM27.3171 28.6057C24.3179 28.814 24.4522 35.2391 27.2708 35.2907C30.2571 35.0983 30.0817 28.6557 27.3171 28.6057ZM39.1724 32.6981C39.4427 32.8968 39.7685 32.6981 39.7685 32.6981C39.4438 32.8968 48.6383 26.7895 48.6383 26.7895V37.8487C48.6383 39.0526 47.8676 39.5575 47.0011 39.5575H37.2521L37.2527 31.3798L39.1724 32.6981ZM37.2532 23.1178V29.1349L39.356 30.459C39.4114 30.4752 39.5316 30.4763 39.587 30.459L48.637 24.3574C48.637 23.6354 47.9635 23.1178 47.5833 23.1178H37.2532Z" fill="black"/>
</g>
<defs>
<clipPath id="clip0_1206_60">
<rect width="30.4255" height="31.6426" fill="white" transform="translate(18.2128 16.5957)"/>
</clipPath>
</defs>
</svg>
