<svg width="42" height="47" viewBox="0 0 42 47" fill="none" xmlns="http://www.w3.org/2000/svg">
<path d="M13.4631 21.9423C13.4631 22.7526 13.1901 23.5297 12.7042 24.1026C12.2182 24.6755 11.5592 24.9974 10.872 24.9974C10.1848 24.9974 9.52572 24.6755 9.0398 24.1026C8.55387 23.5297 8.28088 22.7526 8.28088 21.9423C8.28088 21.132 8.55387 20.355 9.0398 19.782C9.52572 19.2091 10.1848 18.8872 10.872 18.8872C11.5592 18.8872 12.2182 19.2091 12.7042 19.782C13.1901 20.355 13.4631 21.132 13.4631 21.9423ZM23.8274 21.9423C23.8274 22.7526 23.5545 23.5297 23.0685 24.1026C22.5826 24.6755 21.9236 24.9974 21.2364 24.9974C20.5492 24.9974 19.8901 24.6755 19.4042 24.1026C18.9182 23.5297 18.6453 22.7526 18.6453 21.9423C18.6453 21.132 18.9182 20.355 19.4042 19.782C19.8901 19.2091 20.5492 18.8872 21.2364 18.8872C21.9236 18.8872 22.5826 19.2091 23.0685 19.782C23.5545 20.355 23.8274 21.132 23.8274 21.9423ZM31.6007 24.9974C32.2879 24.9974 32.947 24.6755 33.4329 24.1026C33.9188 23.5297 34.1918 22.7526 34.1918 21.9423C34.1918 21.132 33.9188 20.355 33.4329 19.782C32.947 19.2091 32.2879 18.8872 31.6007 18.8872C30.9135 18.8872 30.2545 19.2091 29.7685 19.782C29.2826 20.355 29.0096 21.132 29.0096 21.9423C29.0096 22.7526 29.2826 23.5297 29.7685 24.1026C30.2545 24.6755 30.9135 24.9974 31.6007 24.9974Z" fill="#C6C6C6"/>
<path d="M6.11732 45.7813L6.16914 45.7691C10.9108 44.6601 13.8077 43.1967 15.1551 42.3932C17.1388 43.0171 19.1833 43.3314 21.2363 43.3281C32.6838 43.3281 41.9651 33.7534 41.9651 21.9424C41.9651 10.1313 32.6838 0.556641 21.2363 0.556641C9.7889 0.556641 0.507599 10.1313 0.507599 21.9424C0.507599 27.3193 2.43278 32.2381 5.61205 35.9958C5.38963 38.4097 4.9341 40.7856 4.25432 43.0776L4.24655 43.1112C4.05336 43.7676 3.84251 44.4167 3.61432 45.0573C3.40962 45.6255 3.80606 46.261 4.32169 46.1632C4.92195 46.0474 5.52057 45.9201 6.11732 45.7813ZM8.19019 36.2861C8.22649 35.8388 8.17866 35.3876 8.05012 34.9646C7.92158 34.5416 7.7155 34.1573 7.44655 33.8389C4.69999 30.5883 3.09869 26.4273 3.09869 21.9424C3.09869 12.1905 10.8823 3.61174 21.2363 3.61174C31.5904 3.61174 39.374 12.1905 39.374 21.9424C39.374 31.6973 31.5904 40.273 21.2363 40.273C19.4099 40.2761 17.591 39.9967 15.8261 39.442C15.2094 39.2472 14.5534 39.3277 13.9839 39.6681C12.9811 40.2669 10.7709 41.4095 7.15894 42.3963C7.66284 40.4017 8.00809 38.3562 8.19019 36.2861Z" fill="#C6C6C6"/>
</svg>
