<svg width="65" height="65" viewBox="0 0 65 65" fill="none" xmlns="http://www.w3.org/2000/svg">
<circle cx="32.5" cy="32.5" r="32.5" fill="#D9D9D9"/>
<path d="M46.1223 30.5641H33.4404V34.3396H42.4436C41.9872 39.6088 37.6032 41.863 33.4543 41.863C28.1575 41.863 23.5106 37.6865 23.5106 31.8088C23.5106 26.1386 27.9362 21.7545 33.4681 21.7545C37.7415 21.7545 40.2447 24.479 40.2447 24.479L42.8723 21.7407C42.8723 21.7407 39.4979 17.979 33.3298 17.979C25.4745 17.979 19.4032 24.6173 19.4032 31.8088C19.4032 38.7928 25.1149 45.6386 33.5372 45.6386C40.9362 45.6386 46.3298 40.563 46.3298 33.0673C46.3298 31.4769 46.1223 30.5641 46.1223 30.5641Z" fill="black"/>
</svg>
