<svg width="54" height="77" viewBox="0 0 54 77" fill="none" xmlns="http://www.w3.org/2000/svg">
<path d="M37.8479 74.3334L36.7422 75.9999C37.3561 76.4073 38.1443 76.4441 38.7936 76.0957C39.4428 75.7473 39.8479 75.0702 39.8479 74.3334H37.8479ZM27 67.1357L28.1058 65.4692C27.4356 65.0246 26.5644 65.0246 25.8942 65.4692L27 67.1357ZM16.1521 74.3334H14.1521C14.1521 75.0702 14.5572 75.7473 15.2064 76.0957C15.8557 76.4441 16.6439 76.4073 17.2578 75.9999L16.1521 74.3334ZM15.2511 7.88828L15.0913 9.88188L15.2511 7.88828ZM21.3398 5.37823L19.8196 4.07858L19.8196 4.07858L21.3398 5.37823ZM7.2275 15.6219L5.23402 15.7833L7.2275 15.6219ZM15.0168 7.86949L15.1767 5.87589L15.0168 7.86949ZM4.72438 21.9149L6.01689 23.4412L6.01689 23.4412L4.72438 21.9149ZM7.24638 15.8551L9.23986 15.6938L7.24638 15.8551ZM4.54535 33.0302L3.25284 34.5564L3.25285 34.5564L4.54535 33.0302ZM4.54535 22.0666L3.25285 20.5403L3.25284 20.5403L4.54535 22.0666ZM7.24638 39.2416L5.2529 39.0802H5.2529L7.24638 39.2416ZM4.72438 33.1818L6.01689 31.6555L6.01688 31.6555L4.72438 33.1818ZM15.0168 47.2272L15.1767 49.2208H15.1767L15.0168 47.2272ZM7.2275 39.4748L9.22098 39.6362L9.22098 39.6362L7.2275 39.4748ZM21.3398 49.7185L22.86 48.4189L22.8599 48.4188L21.3398 49.7185ZM15.2511 47.2084L15.0913 45.2148H15.0913L15.2511 47.2084ZM32.5079 49.8967L34.0281 51.1963L34.0281 51.1963L32.5079 49.8967ZM21.4921 49.8967L19.9719 51.1963L19.9719 51.1963L21.4921 49.8967ZM38.7489 47.2084L38.9087 45.2148H38.9087L38.7489 47.2084ZM32.6602 49.7185L31.1401 48.4189L31.14 48.4189L32.6602 49.7185ZM46.7725 39.4748L48.766 39.3134V39.3134L46.7725 39.4748ZM38.9832 47.2272L38.8233 49.2208H38.8233L38.9832 47.2272ZM49.2756 33.1818L50.5681 34.708L50.5681 34.708L49.2756 33.1818ZM46.7536 39.2416L44.7601 39.403V39.403L46.7536 39.2416ZM49.4546 22.0666L50.7472 20.5403L50.7472 20.5403L49.4546 22.0666ZM49.4546 33.0302L48.1621 31.5039L48.1621 31.5039L49.4546 33.0302ZM46.7536 15.8551L44.7601 15.6938V15.6938L46.7536 15.8551ZM49.2756 21.9149L47.9831 23.4412V23.4412L49.2756 21.9149ZM38.9832 7.86949L38.8233 5.87589L38.9832 7.86949ZM46.7725 15.6219L48.766 15.7833V15.7833L46.7725 15.6219ZM32.6602 5.37823L34.1804 4.07858L34.1804 4.07857L32.6602 5.37823ZM38.7489 7.88828L38.9087 9.88188L38.7489 7.88828ZM32.5079 5.20005L30.9877 6.4997L30.9877 6.49971L32.5079 5.20005ZM21.4921 5.20005L23.0123 6.49969L23.0123 6.49969L21.4921 5.20005ZM16.1521 47.1922L16.2401 45.1941L16.1521 47.1922ZM38.9537 72.6669L28.1058 65.4692L25.8942 68.8022L36.7422 75.9999L38.9537 72.6669ZM25.8942 65.4692L15.0463 72.6669L17.2578 75.9999L28.1058 68.8022L25.8942 65.4692ZM30.9877 6.49971L31.1401 6.67789L34.1804 4.07857L34.028 3.90039L30.9877 6.49971ZM38.9087 9.88188L39.143 9.8631L38.8233 5.87589L38.589 5.89468L38.9087 9.88188ZM44.779 15.4606L44.7601 15.6938L48.7471 16.0165L48.766 15.7833L44.779 15.4606ZM47.9831 23.4412L48.1621 23.5928L50.7472 20.5403L50.5681 20.3887L47.9831 23.4412ZM48.1621 31.5039L47.9831 31.6555L50.5681 34.708L50.7472 34.5564L48.1621 31.5039ZM44.7601 39.403L44.779 39.6362L48.766 39.3134L48.7471 39.0802L44.7601 39.403ZM39.143 45.2336L38.9087 45.2148L38.589 49.202L38.8233 49.2208L39.143 45.2336ZM31.14 48.4189L30.9877 48.597L34.0281 51.1963L34.1804 51.0181L31.14 48.4189ZM23.0123 48.597L22.86 48.4189L19.8196 51.0181L19.9719 51.1963L23.0123 48.597ZM15.0913 45.2148L14.857 45.2336L15.1767 49.2208L15.411 49.202L15.0913 45.2148ZM9.22098 39.6362L9.23986 39.403L5.2529 39.0802L5.23402 39.3134L9.22098 39.6362ZM6.01688 31.6555L5.83785 31.5039L3.25285 34.5564L3.43188 34.708L6.01688 31.6555ZM5.83786 23.5928L6.01689 23.4412L3.43188 20.3887L3.25285 20.5403L5.83786 23.5928ZM9.23986 15.6938L9.22098 15.4606L5.23402 15.7833L5.2529 16.0165L9.23986 15.6938ZM14.857 9.8631L15.0913 9.88188L15.411 5.89468L15.1767 5.87589L14.857 9.8631ZM22.8599 6.67788L23.0123 6.49969L19.9719 3.9004L19.8196 4.07858L22.8599 6.67788ZM15.0913 9.88188C18.045 10.1187 20.9358 8.92849 22.8599 6.67787L19.8196 4.07858C18.7311 5.35177 17.0911 6.0294 15.411 5.89468L15.0913 9.88188ZM9.22098 15.4606C8.96348 12.2795 11.6324 9.60454 14.857 9.8631L15.1767 5.87589C9.51787 5.42216 4.77584 10.123 5.23402 15.7833L9.22098 15.4606ZM6.01689 23.4412C8.2776 21.5267 9.4787 18.6444 9.23986 15.6938L5.2529 16.0165C5.38737 17.6777 4.71175 19.3048 3.43187 20.3887L6.01689 23.4412ZM5.83786 31.5039C3.38738 29.4287 3.38738 25.668 5.83786 23.5928L3.25284 20.5403C-1.08428 24.2132 -1.08428 30.8835 3.25284 34.5564L5.83786 31.5039ZM9.23986 39.403C9.4787 36.4523 8.27759 33.57 6.01689 31.6555L3.43187 34.708C4.71175 35.7919 5.38737 37.419 5.2529 39.0802L9.23986 39.403ZM14.857 45.2336C11.6324 45.4922 8.96348 42.8172 9.22098 39.6362L5.23402 39.3134C4.77584 44.9737 9.51786 49.6746 15.1767 49.2208L14.857 45.2336ZM30.9877 48.597C28.8983 51.041 25.1017 51.041 23.0123 48.597L19.9719 51.1963C23.658 55.5079 30.342 55.5079 34.0281 51.1963L30.9877 48.597ZM44.779 39.6362C45.0365 42.8172 42.3676 45.4922 39.143 45.2336L38.8233 49.2208C44.4821 49.6746 49.2242 44.9737 48.766 39.3134L44.779 39.6362ZM47.9831 31.6555C45.7224 33.57 44.5213 36.4523 44.7601 39.403L48.7471 39.0802C48.6126 37.419 49.2882 35.7919 50.5681 34.708L47.9831 31.6555ZM48.1621 23.5928C50.6126 25.668 50.6126 29.4287 48.1621 31.5039L50.7472 34.5564C55.0843 30.8835 55.0843 24.2132 50.7472 20.5403L48.1621 23.5928ZM44.7601 15.6938C44.5213 18.6444 45.7224 21.5267 47.9831 23.4412L50.5681 20.3887C49.2882 19.3048 48.6126 17.6777 48.7471 16.0165L44.7601 15.6938ZM39.143 9.8631C42.3676 9.60454 45.0365 12.2795 44.779 15.4606L48.766 15.7833C49.2242 10.123 44.4821 5.42216 38.8233 5.87589L39.143 9.8631ZM31.1401 6.67788C33.0642 8.9285 35.955 10.1187 38.9087 9.88188L38.589 5.89468C36.9089 6.0294 35.2689 5.35178 34.1804 4.07858L31.1401 6.67788ZM34.0281 3.9004C30.342 -0.411134 23.658 -0.411139 19.9719 3.9004L23.0123 6.49969C25.1017 4.05577 28.8983 4.05577 30.9877 6.4997L34.0281 3.9004ZM22.8599 48.4188C21.1862 46.4611 18.7812 45.306 16.2401 45.1941L16.0641 49.1903C17.5091 49.2539 18.873 49.9109 19.8196 51.0181L22.8599 48.4188ZM16.2401 45.1941C15.8594 45.1774 15.4758 45.184 15.0913 45.2148L15.411 49.202C15.6299 49.1845 15.8479 49.1807 16.0641 49.1903L16.2401 45.1941ZM18.1521 74.3334V47.1922H14.1521V74.3334H18.1521ZM38.9087 45.2148C38.5242 45.184 38.1406 45.1774 37.7599 45.1941L37.9359 49.1903C38.1521 49.1807 38.3701 49.1845 38.589 49.202L38.9087 45.2148ZM37.7599 45.1941C35.2188 45.306 32.8138 46.4611 31.1401 48.4189L34.1804 51.0181C35.127 49.9109 36.4909 49.2539 37.9359 49.1903L37.7599 45.1941ZM35.8479 47.1922V74.3334H39.8479V47.1922H35.8479Z" fill="white"/>
<path d="M38 21L21.5 38L16 32.3333" stroke="white" stroke-width="6" stroke-linecap="round" stroke-linejoin="round"/>
</svg>
