<svg width="25" height="25" viewBox="0 0 25 25" fill="none" xmlns="http://www.w3.org/2000/svg">
<path d="M4.09372 17.5859L5.21091 16.4766C3.98764 15.3782 3.02652 14.0193 2.39841 12.5C3.98435 8.53906 8.35935 5.46875 12.5 5.46875C13.5655 5.48282 14.6214 5.67288 15.625 6.03125L16.8359 4.8125C15.463 4.23228 13.9904 3.92449 12.5 3.90625C9.9535 4.00201 7.4909 4.84184 5.41654 6.32194C3.34217 7.80204 1.74697 9.85754 0.828098 12.2344C0.766041 12.406 0.766041 12.594 0.828098 12.7656C1.52204 14.607 2.64093 16.2586 4.09372 17.5859V17.5859Z" fill="#6D717A"/>
<path d="M9.375 12.2891C9.42933 11.5404 9.75132 10.8363 10.2821 10.3055C10.8129 9.77476 11.517 9.45277 12.2656 9.39844L13.6797 7.97656C12.8873 7.76793 12.0541 7.77064 11.2631 7.98442C10.4721 8.19821 9.75095 8.61561 9.17156 9.195C8.59217 9.77439 8.17477 10.4955 7.96099 11.2865C7.7472 12.0775 7.74449 12.9108 7.95313 13.7031L9.375 12.2891ZM24.1719 12.2344C23.276 9.90094 21.7172 7.88049 19.6875 6.42188L23.4375 2.66406L22.3359 1.5625L1.5625 22.3359L2.66406 23.4375L6.64844 19.4531C8.4249 20.4953 10.4407 21.0605 12.5 21.0938C15.0465 20.998 17.5091 20.1582 19.5834 18.6781C21.6578 17.198 23.253 15.1425 24.1719 12.7656C24.2339 12.594 24.2339 12.406 24.1719 12.2344V12.2344ZM15.625 12.5C15.6217 13.047 15.4749 13.5835 15.1993 14.0559C14.9237 14.5284 14.5289 14.9202 14.0544 15.1922C13.5799 15.4643 13.0423 15.607 12.4953 15.6062C11.9483 15.6054 11.4112 15.461 10.9375 15.1875L15.1875 10.9375C15.4684 11.4107 15.6193 11.9497 15.625 12.5V12.5ZM12.5 19.5312C10.861 19.5026 9.25304 19.0792 7.8125 18.2969L9.79687 16.3125C10.6995 16.9388 11.7934 17.2281 12.8876 17.1301C13.9818 17.032 15.0068 16.5527 15.7836 15.7758C16.5605 14.999 17.0398 13.974 17.1379 12.8798C17.236 11.7856 16.9466 10.6917 16.3203 9.78906L18.5625 7.54687C20.3551 8.77733 21.757 10.4964 22.6016 12.5C21.0156 16.4609 16.6406 19.5312 12.5 19.5312Z" fill="#6D717A"/>
</svg>
