<svg width="1448" height="540" viewBox="0 0 1448 540" fill="none" xmlns="http://www.w3.org/2000/svg">
<g opacity="0.2" filter="url(#filter0_b_160_538)">
<mask id="mask0_160_538" style="mask-type:alpha" maskUnits="userSpaceOnUse" x="0" y="0" width="1448" height="540">
<rect width="1448" height="540" rx="26" fill="#D9D9D9"/>
<rect x="1.5" y="1.5" width="1445" height="537" rx="24.5" stroke="url(#paint0_radial_160_538)" stroke-opacity="0.44" stroke-width="3"/>
<rect x="1.5" y="1.5" width="1445" height="537" rx="24.5" stroke="url(#paint1_linear_160_538)" stroke-opacity="0.2" stroke-width="3"/>
<rect x="1.5" y="1.5" width="1445" height="537" rx="24.5" stroke="url(#paint2_linear_160_538)" stroke-opacity="0.2" stroke-width="3"/>
<rect x="1.5" y="1.5" width="1445" height="537" rx="24.5" stroke="url(#paint3_linear_160_538)" stroke-opacity="0.2" stroke-width="3"/>
</mask>
<g mask="url(#mask0_160_538)">
<g filter="url(#filter1_f_160_538)">
<circle cx="604" cy="92" r="257" fill="url(#paint4_radial_160_538)" fill-opacity="0.6"/>
<circle cx="604" cy="92" r="255.5" stroke="url(#paint5_radial_160_538)" stroke-opacity="0.44" stroke-width="3"/>
<circle cx="604" cy="92" r="255.5" stroke="url(#paint6_linear_160_538)" stroke-opacity="0.2" stroke-width="3"/>
<circle cx="604" cy="92" r="255.5" stroke="url(#paint7_linear_160_538)" stroke-opacity="0.2" stroke-width="3"/>
<circle cx="604" cy="92" r="255.5" stroke="url(#paint8_linear_160_538)" stroke-opacity="0.2" stroke-width="3"/>
</g>
<g filter="url(#filter2_f_160_538)">
<circle cx="760.5" cy="514.5" r="360.5" fill="url(#paint9_radial_160_538)" fill-opacity="0.6"/>
<circle cx="760.5" cy="514.5" r="359" stroke="url(#paint10_radial_160_538)" stroke-opacity="0.44" stroke-width="3"/>
<circle cx="760.5" cy="514.5" r="359" stroke="url(#paint11_linear_160_538)" stroke-opacity="0.2" stroke-width="3"/>
<circle cx="760.5" cy="514.5" r="359" stroke="url(#paint12_linear_160_538)" stroke-opacity="0.2" stroke-width="3"/>
<circle cx="760.5" cy="514.5" r="359" stroke="url(#paint13_linear_160_538)" stroke-opacity="0.2" stroke-width="3"/>
</g>
<g filter="url(#filter3_f_160_538)">
<circle cx="1255" cy="428" r="305" fill="url(#paint14_radial_160_538)" fill-opacity="0.6"/>
<circle cx="1255" cy="428" r="303.5" stroke="url(#paint15_radial_160_538)" stroke-opacity="0.44" stroke-width="3"/>
<circle cx="1255" cy="428" r="303.5" stroke="url(#paint16_linear_160_538)" stroke-opacity="0.2" stroke-width="3"/>
<circle cx="1255" cy="428" r="303.5" stroke="url(#paint17_linear_160_538)" stroke-opacity="0.2" stroke-width="3"/>
<circle cx="1255" cy="428" r="303.5" stroke="url(#paint18_linear_160_538)" stroke-opacity="0.2" stroke-width="3"/>
</g>
<g filter="url(#filter4_f_160_538)">
<ellipse cx="1171" cy="47" rx="337" ry="335" fill="#8AF1D8" fill-opacity="0.59"/>
<path d="M1506.5 47C1506.5 231.179 1356.3 380.5 1171 380.5C985.7 380.5 835.5 231.179 835.5 47C835.5 -137.179 985.7 -286.5 1171 -286.5C1356.3 -286.5 1506.5 -137.179 1506.5 47Z" stroke="url(#paint19_radial_160_538)" stroke-opacity="0.44" stroke-width="3"/>
<path d="M1506.5 47C1506.5 231.179 1356.3 380.5 1171 380.5C985.7 380.5 835.5 231.179 835.5 47C835.5 -137.179 985.7 -286.5 1171 -286.5C1356.3 -286.5 1506.5 -137.179 1506.5 47Z" stroke="url(#paint20_linear_160_538)" stroke-opacity="0.2" stroke-width="3"/>
<path d="M1506.5 47C1506.5 231.179 1356.3 380.5 1171 380.5C985.7 380.5 835.5 231.179 835.5 47C835.5 -137.179 985.7 -286.5 1171 -286.5C1356.3 -286.5 1506.5 -137.179 1506.5 47Z" stroke="url(#paint21_linear_160_538)" stroke-opacity="0.2" stroke-width="3"/>
<path d="M1506.5 47C1506.5 231.179 1356.3 380.5 1171 380.5C985.7 380.5 835.5 231.179 835.5 47C835.5 -137.179 985.7 -286.5 1171 -286.5C1356.3 -286.5 1506.5 -137.179 1506.5 47Z" stroke="url(#paint22_linear_160_538)" stroke-opacity="0.2" stroke-width="3"/>
</g>
<g filter="url(#filter5_f_160_538)">
<ellipse cx="102" cy="105" rx="241" ry="255" fill="#26C2F3" fill-opacity="0.7"/>
<path d="M341.5 105C341.5 245.085 234.194 358.5 102 358.5C-30.1935 358.5 -137.5 245.085 -137.5 105C-137.5 -35.0851 -30.1935 -148.5 102 -148.5C234.194 -148.5 341.5 -35.0851 341.5 105Z" stroke="url(#paint23_radial_160_538)" stroke-opacity="0.44" stroke-width="3"/>
<path d="M341.5 105C341.5 245.085 234.194 358.5 102 358.5C-30.1935 358.5 -137.5 245.085 -137.5 105C-137.5 -35.0851 -30.1935 -148.5 102 -148.5C234.194 -148.5 341.5 -35.0851 341.5 105Z" stroke="url(#paint24_linear_160_538)" stroke-opacity="0.2" stroke-width="3"/>
<path d="M341.5 105C341.5 245.085 234.194 358.5 102 358.5C-30.1935 358.5 -137.5 245.085 -137.5 105C-137.5 -35.0851 -30.1935 -148.5 102 -148.5C234.194 -148.5 341.5 -35.0851 341.5 105Z" stroke="url(#paint25_linear_160_538)" stroke-opacity="0.2" stroke-width="3"/>
<path d="M341.5 105C341.5 245.085 234.194 358.5 102 358.5C-30.1935 358.5 -137.5 245.085 -137.5 105C-137.5 -35.0851 -30.1935 -148.5 102 -148.5C234.194 -148.5 341.5 -35.0851 341.5 105Z" stroke="url(#paint26_linear_160_538)" stroke-opacity="0.2" stroke-width="3"/>
</g>
<g filter="url(#filter6_f_160_538)">
<ellipse cx="175" cy="497" rx="329" ry="359" fill="url(#paint27_radial_160_538)" fill-opacity="0.9"/>
<path d="M502.5 497C502.5 694.568 355.753 854.5 175 854.5C-5.75272 854.5 -152.5 694.568 -152.5 497C-152.5 299.432 -5.75272 139.5 175 139.5C355.753 139.5 502.5 299.432 502.5 497Z" stroke="url(#paint28_radial_160_538)" stroke-opacity="0.44" stroke-width="3"/>
<path d="M502.5 497C502.5 694.568 355.753 854.5 175 854.5C-5.75272 854.5 -152.5 694.568 -152.5 497C-152.5 299.432 -5.75272 139.5 175 139.5C355.753 139.5 502.5 299.432 502.5 497Z" stroke="url(#paint29_linear_160_538)" stroke-opacity="0.2" stroke-width="3"/>
<path d="M502.5 497C502.5 694.568 355.753 854.5 175 854.5C-5.75272 854.5 -152.5 694.568 -152.5 497C-152.5 299.432 -5.75272 139.5 175 139.5C355.753 139.5 502.5 299.432 502.5 497Z" stroke="url(#paint30_linear_160_538)" stroke-opacity="0.2" stroke-width="3"/>
<path d="M502.5 497C502.5 694.568 355.753 854.5 175 854.5C-5.75272 854.5 -152.5 694.568 -152.5 497C-152.5 299.432 -5.75272 139.5 175 139.5C355.753 139.5 502.5 299.432 502.5 497Z" stroke="url(#paint31_linear_160_538)" stroke-opacity="0.2" stroke-width="3"/>
</g>
</g>
</g>
<defs>
<filter id="filter0_b_160_538" x="-400" y="-400" width="2248" height="1340" filterUnits="userSpaceOnUse" color-interpolation-filters="sRGB">
<feFlood flood-opacity="0" result="BackgroundImageFix"/>
<feGaussianBlur in="BackgroundImageFix" stdDeviation="200"/>
<feComposite in2="SourceAlpha" operator="in" result="effect1_backgroundBlur_160_538"/>
<feBlend mode="normal" in="SourceGraphic" in2="effect1_backgroundBlur_160_538" result="shape"/>
</filter>
<filter id="filter1_f_160_538" x="226.28" y="-285.72" width="755.44" height="755.44" filterUnits="userSpaceOnUse" color-interpolation-filters="sRGB">
<feFlood flood-opacity="0" result="BackgroundImageFix"/>
<feBlend mode="normal" in="SourceGraphic" in2="BackgroundImageFix" result="shape"/>
<feGaussianBlur stdDeviation="60.36" result="effect1_foregroundBlur_160_538"/>
</filter>
<filter id="filter2_f_160_538" x="279.28" y="33.28" width="962.44" height="962.44" filterUnits="userSpaceOnUse" color-interpolation-filters="sRGB">
<feFlood flood-opacity="0" result="BackgroundImageFix"/>
<feBlend mode="normal" in="SourceGraphic" in2="BackgroundImageFix" result="shape"/>
<feGaussianBlur stdDeviation="60.36" result="effect1_foregroundBlur_160_538"/>
</filter>
<filter id="filter3_f_160_538" x="829.28" y="2.28001" width="851.44" height="851.44" filterUnits="userSpaceOnUse" color-interpolation-filters="sRGB">
<feFlood flood-opacity="0" result="BackgroundImageFix"/>
<feBlend mode="normal" in="SourceGraphic" in2="BackgroundImageFix" result="shape"/>
<feGaussianBlur stdDeviation="60.36" result="effect1_foregroundBlur_160_538"/>
</filter>
<filter id="filter4_f_160_538" x="688.5" y="-433.5" width="965" height="961" filterUnits="userSpaceOnUse" color-interpolation-filters="sRGB">
<feFlood flood-opacity="0" result="BackgroundImageFix"/>
<feBlend mode="normal" in="SourceGraphic" in2="BackgroundImageFix" result="shape"/>
<feGaussianBlur stdDeviation="72.75" result="effect1_foregroundBlur_160_538"/>
</filter>
<filter id="filter5_f_160_538" x="-259.72" y="-270.72" width="723.44" height="751.44" filterUnits="userSpaceOnUse" color-interpolation-filters="sRGB">
<feFlood flood-opacity="0" result="BackgroundImageFix"/>
<feBlend mode="normal" in="SourceGraphic" in2="BackgroundImageFix" result="shape"/>
<feGaussianBlur stdDeviation="60.36" result="effect1_foregroundBlur_160_538"/>
</filter>
<filter id="filter6_f_160_538" x="-274.72" y="17.28" width="899.44" height="959.44" filterUnits="userSpaceOnUse" color-interpolation-filters="sRGB">
<feFlood flood-opacity="0" result="BackgroundImageFix"/>
<feBlend mode="normal" in="SourceGraphic" in2="BackgroundImageFix" result="shape"/>
<feGaussianBlur stdDeviation="60.36" result="effect1_foregroundBlur_160_538"/>
</filter>
<radialGradient id="paint0_radial_160_538" cx="0" cy="0" r="1" gradientUnits="userSpaceOnUse" gradientTransform="translate(1448 221.786) rotate(176.19) scale(725.604 277.994)">
<stop stop-color="#258ED9" stop-opacity="0.59"/>
<stop offset="1" stop-color="#258ED9" stop-opacity="0"/>
</radialGradient>
<linearGradient id="paint1_linear_160_538" x1="1021.36" y1="540" x2="995.013" y2="237.257" gradientUnits="userSpaceOnUse">
<stop stop-color="#EB1B1B"/>
<stop offset="1" stop-color="#EB1B1B" stop-opacity="0"/>
</linearGradient>
<linearGradient id="paint2_linear_160_538" x1="581.786" y1="38.5714" x2="602.839" y2="243.854" gradientUnits="userSpaceOnUse">
<stop stop-color="#D422F1"/>
<stop offset="1" stop-color="#CE2EE8" stop-opacity="0"/>
</linearGradient>
<linearGradient id="paint3_linear_160_538" x1="38.7857" y1="356.786" x2="607.946" y2="-72.4557" gradientUnits="userSpaceOnUse">
<stop stop-color="#2EF766"/>
<stop offset="1" stop-color="#36FF6E" stop-opacity="0"/>
</linearGradient>
<radialGradient id="paint4_radial_160_538" cx="0" cy="0" r="1" gradientUnits="userSpaceOnUse" gradientTransform="translate(604 92) rotate(90) scale(257)">
<stop stop-color="#D62597"/>
<stop offset="1" stop-color="#D62597" stop-opacity="0"/>
</radialGradient>
<radialGradient id="paint5_radial_160_538" cx="0" cy="0" r="1" gradientUnits="userSpaceOnUse" gradientTransform="translate(861 46.1071) rotate(169.875) scale(261.065)">
<stop stop-color="#258ED9" stop-opacity="0.59"/>
<stop offset="1" stop-color="#258ED9" stop-opacity="0"/>
</radialGradient>
<linearGradient id="paint6_linear_160_538" x1="709.554" y1="349" x2="645.304" y2="73.6428" gradientUnits="userSpaceOnUse">
<stop stop-color="#EB1B1B"/>
<stop offset="1" stop-color="#EB1B1B" stop-opacity="0"/>
</linearGradient>
<linearGradient id="paint7_linear_160_538" x1="553.518" y1="-128.286" x2="604" y2="55.2857" gradientUnits="userSpaceOnUse">
<stop stop-color="#D422F1"/>
<stop offset="1" stop-color="#CE2EE8" stop-opacity="0"/>
</linearGradient>
<linearGradient id="paint8_linear_160_538" x1="360.768" y1="174.607" x2="654.482" y2="92" gradientUnits="userSpaceOnUse">
<stop stop-color="#2EF766"/>
<stop offset="1" stop-color="#36FF6E" stop-opacity="0"/>
</linearGradient>
<radialGradient id="paint9_radial_160_538" cx="0" cy="0" r="1" gradientUnits="userSpaceOnUse" gradientTransform="translate(760.5 514.5) rotate(90) scale(360.5)">
<stop stop-color="#FAFF12"/>
<stop offset="1" stop-color="#D62597" stop-opacity="0"/>
</radialGradient>
<radialGradient id="paint10_radial_160_538" cx="0" cy="0" r="1" gradientUnits="userSpaceOnUse" gradientTransform="translate(1121 450.125) rotate(169.875) scale(366.203)">
<stop stop-color="#258ED9" stop-opacity="0.59"/>
<stop offset="1" stop-color="#258ED9" stop-opacity="0"/>
</radialGradient>
<linearGradient id="paint11_linear_160_538" x1="908.562" y1="875" x2="818.437" y2="488.75" gradientUnits="userSpaceOnUse">
<stop stop-color="#EB1B1B"/>
<stop offset="1" stop-color="#EB1B1B" stop-opacity="0"/>
</linearGradient>
<linearGradient id="paint12_linear_160_538" x1="689.687" y1="205.5" x2="760.5" y2="463" gradientUnits="userSpaceOnUse">
<stop stop-color="#D422F1"/>
<stop offset="1" stop-color="#CE2EE8" stop-opacity="0"/>
</linearGradient>
<linearGradient id="paint13_linear_160_538" x1="419.313" y1="630.375" x2="831.313" y2="514.5" gradientUnits="userSpaceOnUse">
<stop stop-color="#2EF766"/>
<stop offset="1" stop-color="#36FF6E" stop-opacity="0"/>
</linearGradient>
<radialGradient id="paint14_radial_160_538" cx="0" cy="0" r="1" gradientUnits="userSpaceOnUse" gradientTransform="translate(1255 428) rotate(90) scale(305)">
<stop stop-color="#3A63F3"/>
<stop offset="1" stop-color="#D62597" stop-opacity="0"/>
</radialGradient>
<radialGradient id="paint15_radial_160_538" cx="0" cy="0" r="1" gradientUnits="userSpaceOnUse" gradientTransform="translate(1560 373.536) rotate(169.875) scale(309.825)">
<stop stop-color="#258ED9" stop-opacity="0.59"/>
<stop offset="1" stop-color="#258ED9" stop-opacity="0"/>
</radialGradient>
<linearGradient id="paint16_linear_160_538" x1="1380.27" y1="733" x2="1304.02" y2="406.214" gradientUnits="userSpaceOnUse">
<stop stop-color="#EB1B1B"/>
<stop offset="1" stop-color="#EB1B1B" stop-opacity="0"/>
</linearGradient>
<linearGradient id="paint17_linear_160_538" x1="1195.09" y1="166.571" x2="1255" y2="384.429" gradientUnits="userSpaceOnUse">
<stop stop-color="#D422F1"/>
<stop offset="1" stop-color="#CE2EE8" stop-opacity="0"/>
</linearGradient>
<linearGradient id="paint18_linear_160_538" x1="966.339" y1="526.036" x2="1314.91" y2="428" gradientUnits="userSpaceOnUse">
<stop stop-color="#2EF766"/>
<stop offset="1" stop-color="#36FF6E" stop-opacity="0"/>
</linearGradient>
<radialGradient id="paint19_radial_160_538" cx="0" cy="0" r="1" gradientUnits="userSpaceOnUse" gradientTransform="translate(1508 -12.8215) rotate(169.934) scale(342.268 340.362)">
<stop stop-color="#258ED9" stop-opacity="0.59"/>
<stop offset="1" stop-color="#258ED9" stop-opacity="0"/>
</radialGradient>
<linearGradient id="paint20_linear_160_538" x1="1309.41" y1="382" x2="1226.11" y2="22.8519" gradientUnits="userSpaceOnUse">
<stop stop-color="#EB1B1B"/>
<stop offset="1" stop-color="#EB1B1B" stop-opacity="0"/>
</linearGradient>
<linearGradient id="paint21_linear_160_538" x1="1104.8" y1="-240.143" x2="1170.27" y2="-0.657889" gradientUnits="userSpaceOnUse">
<stop stop-color="#D422F1"/>
<stop offset="1" stop-color="#CE2EE8" stop-opacity="0"/>
</linearGradient>
<linearGradient id="paint22_linear_160_538" x1="852.054" y1="154.679" x2="1236.86" y2="45.806" gradientUnits="userSpaceOnUse">
<stop stop-color="#2EF766"/>
<stop offset="1" stop-color="#36FF6E" stop-opacity="0"/>
</linearGradient>
<radialGradient id="paint23_radial_160_538" cx="0" cy="0" r="1" gradientUnits="userSpaceOnUse" gradientTransform="translate(343 59.4643) rotate(169.3) scale(245.264 258.557)">
<stop stop-color="#258ED9" stop-opacity="0.59"/>
<stop offset="1" stop-color="#258ED9" stop-opacity="0"/>
</radialGradient>
<linearGradient id="paint24_linear_160_538" x1="200.982" y1="360" x2="133.943" y2="88.4619" gradientUnits="userSpaceOnUse">
<stop stop-color="#EB1B1B"/>
<stop offset="1" stop-color="#EB1B1B" stop-opacity="0"/>
</linearGradient>
<linearGradient id="paint25_linear_160_538" x1="54.6607" y1="-113.571" x2="107.218" y2="67.0531" gradientUnits="userSpaceOnUse">
<stop stop-color="#D422F1"/>
<stop offset="1" stop-color="#CE2EE8" stop-opacity="0"/>
</linearGradient>
<linearGradient id="paint26_linear_160_538" x1="-126.089" y1="186.964" x2="151.512" y2="113.175" gradientUnits="userSpaceOnUse">
<stop stop-color="#2EF766"/>
<stop offset="1" stop-color="#36FF6E" stop-opacity="0"/>
</linearGradient>
<radialGradient id="paint27_radial_160_538" cx="0" cy="0" r="1" gradientUnits="userSpaceOnUse" gradientTransform="translate(175 497) rotate(90) scale(359 329)">
<stop stop-color="#E062FF"/>
<stop offset="1" stop-color="#E062FF" stop-opacity="0"/>
</radialGradient>
<radialGradient id="paint28_radial_160_538" cx="0" cy="0" r="1" gradientUnits="userSpaceOnUse" gradientTransform="translate(504 432.893) rotate(168.974) scale(335.188 363.609)">
<stop stop-color="#258ED9" stop-opacity="0.59"/>
<stop offset="1" stop-color="#258ED9" stop-opacity="0"/>
</radialGradient>
<linearGradient id="paint29_linear_160_538" x1="310.125" y1="856" x2="213.146" y2="475.107" gradientUnits="userSpaceOnUse">
<stop stop-color="#EB1B1B"/>
<stop offset="1" stop-color="#EB1B1B" stop-opacity="0"/>
</linearGradient>
<linearGradient id="paint30_linear_160_538" x1="110.375" y1="189.286" x2="186.305" y2="442.322" gradientUnits="userSpaceOnUse">
<stop stop-color="#D422F1"/>
<stop offset="1" stop-color="#CE2EE8" stop-opacity="0"/>
</linearGradient>
<linearGradient id="paint31_linear_160_538" x1="-136.375" y1="612.393" x2="244.091" y2="514.329" gradientUnits="userSpaceOnUse">
<stop stop-color="#2EF766"/>
<stop offset="1" stop-color="#36FF6E" stop-opacity="0"/>
</linearGradient>
</defs>
</svg>
