<svg width="61" height="65" viewBox="0 0 61 65" fill="none" xmlns="http://www.w3.org/2000/svg">
<path d="M17.0777 52.1903L10.1339 50.5964C9.50267 50.4635 8.99767 50.1199 8.61892 49.5656C8.24017 49.013 8.09288 48.4046 8.17705 47.7405L8.87142 40.2356L4.13705 34.5238C3.71622 34.0368 3.5058 33.4612 3.5058 32.7971C3.5058 32.1329 3.71622 31.5573 4.13705 31.0703L8.87142 25.3585L8.17705 17.8536C8.09288 17.1895 8.24017 16.5811 8.61892 16.0285C8.99767 15.4742 9.50267 15.1306 10.1339 14.9977L17.0777 13.4038L20.7389 6.89508C21.0756 6.31948 21.5385 5.94313 22.1277 5.76602C22.7168 5.58891 23.306 5.61105 23.8952 5.83244L30.4602 8.75471L37.0252 5.83244C37.6143 5.61105 38.2035 5.58891 38.7927 5.76602C39.3818 5.94313 39.8448 6.31948 40.1814 6.89508L43.8427 13.4038L50.7864 14.9977C51.4177 15.1306 51.9227 15.4742 52.3014 16.0285C52.6802 16.5811 52.8275 17.1895 52.7433 17.8536L52.0489 25.3585L56.7833 31.0703C57.2041 31.5573 57.4146 32.1329 57.4146 32.7971C57.4146 33.4612 57.2041 34.0368 56.7833 34.5238L52.0489 40.2356L52.7433 47.7405C52.8275 48.4046 52.6802 49.013 52.3014 49.5656C51.9227 50.1199 51.4177 50.4635 50.7864 50.5964L43.8427 52.1903L40.1814 58.699C39.8448 59.2746 39.3818 59.651 38.7927 59.8281C38.2035 60.0052 37.6143 59.9831 37.0252 59.7617L30.4602 56.8394L23.8952 59.7617C23.306 59.9831 22.7168 60.0052 22.1277 59.8281C21.5385 59.651 21.0756 59.2746 20.7389 58.699L17.0777 52.1903ZM26.0414 40.3684C26.5043 40.8554 27.0935 41.099 27.8089 41.099C28.5243 41.099 29.1135 40.8554 29.5764 40.3684L40.3077 29.0778C40.8127 28.5465 41.0652 27.9151 41.0652 27.1836C41.0652 26.4539 40.8127 25.8234 40.3077 25.2921C39.8027 24.7608 39.2034 24.4951 38.5099 24.4951C37.8147 24.4951 37.2146 24.7608 36.7096 25.2921L27.8089 34.6567L24.1477 30.871C23.6427 30.384 23.0434 30.1511 22.3499 30.1723C21.6547 30.1953 21.0756 30.4504 20.6127 30.9374C20.1498 31.4245 19.9183 32.0443 19.9183 32.7971C19.9183 33.5498 20.1498 34.1696 20.6127 34.6567L26.0414 40.3684Z" fill="#157B11"/>
</svg>
