<svg width="55" height="65" viewBox="0 0 55 65" fill="none" xmlns="http://www.w3.org/2000/svg">
<path d="M15.3911 52.1903L9.19503 50.5964C8.63175 50.4635 8.18113 50.1199 7.84316 49.5656C7.50519 49.013 7.37376 48.4046 7.44886 47.7405L8.06847 40.2356L3.84386 34.5238C3.46834 34.0368 3.28058 33.4612 3.28058 32.7971C3.28058 32.1329 3.46834 31.5573 3.84386 31.0703L8.06847 25.3585L7.44886 17.8536C7.37376 17.1895 7.50519 16.5811 7.84316 16.0285C8.18113 15.4742 8.63175 15.1306 9.19503 14.9977L15.3911 13.4038L18.6582 6.89508C18.9586 6.31948 19.3716 5.94313 19.8974 5.76602C20.4231 5.58891 20.9488 5.61105 21.4746 5.83244L27.3327 8.75471L33.1908 5.83244C33.7165 5.61105 34.2423 5.58891 34.768 5.76602C35.2937 5.94313 35.7068 6.31948 36.0072 6.89508L39.2743 13.4038L45.4703 14.9977C46.0336 15.1306 46.4843 15.4742 46.8222 16.0285C47.1602 16.5811 47.2916 17.1895 47.2165 17.8536L46.5969 25.3585L50.8215 31.0703C51.197 31.5573 51.3848 32.1329 51.3848 32.7971C51.3848 33.4612 51.197 34.0368 50.8215 34.5238L46.5969 40.2356L47.2165 47.7405C47.2916 48.4046 47.1602 49.013 46.8222 49.5656C46.4843 50.1199 46.0336 50.4635 45.4703 50.5964L39.2743 52.1903L36.0072 58.699C35.7068 59.2746 35.2937 59.651 34.768 59.8281C34.2423 60.0052 33.7165 59.9831 33.1908 59.7617L27.3327 56.8394L21.4746 59.7617C20.9488 59.9831 20.4231 60.0052 19.8974 59.8281C19.3716 59.651 18.9586 59.2746 18.6582 58.699L15.3911 52.1903ZM23.3897 40.3684C23.8028 40.8554 24.3285 41.099 24.9669 41.099C25.6053 41.099 26.131 40.8554 26.5441 40.3684L36.1199 29.0778C36.5705 28.5465 36.7958 27.9151 36.7958 27.1836C36.7958 26.4539 36.5705 25.8234 36.1199 25.2921C35.6693 24.7608 35.1345 24.4951 34.5157 24.4951C33.8953 24.4951 33.3598 24.7608 32.9092 25.2921L24.9669 34.6567L21.6999 30.871C21.2493 30.384 20.7145 30.1511 20.0957 30.1723C19.4753 30.1953 18.9586 30.4504 18.5455 30.9374C18.1324 31.4245 17.9259 32.0443 17.9259 32.7971C17.9259 33.5498 18.1324 34.1696 18.5455 34.6567L23.3897 40.3684Z" fill="#157B11"/>
</svg>
