<svg width="19" height="31" viewBox="0 0 19 31" fill="none" xmlns="http://www.w3.org/2000/svg">
<path d="M18.2027 2.81872V0.162109H0.177734V2.81872H6.37383C7.61722 2.82303 8.81571 3.36717 9.74044 4.34724C10.6652 5.32731 11.2513 6.67464 11.387 8.13195H0.177734V10.7886H11.387C11.2513 12.2459 10.6652 13.5932 9.74044 14.5733C8.81571 15.5533 7.61722 16.0975 6.37383 16.1018H0.177734V19.2167L11.0119 30.7132L12.5192 28.7393L3.11356 18.7584H6.37383C8.21699 18.7552 9.99143 17.9331 11.3434 16.456C12.6953 14.9789 13.5255 12.9553 13.6683 10.7886H18.2027V8.13195H13.6683C13.5391 6.13741 12.8239 4.25846 11.6461 2.81872H18.2027Z" fill="black" fill-opacity="0.9"/>
</svg>
