<svg width="21" height="31" viewBox="0 0 21 31" fill="none" xmlns="http://www.w3.org/2000/svg">
<path d="M20.2203 2.81872V0.162109H0.0202637V2.81872H6.96401C8.35744 2.82303 9.70055 3.36717 10.7369 4.34724C11.7732 5.32731 12.4301 6.67464 12.5821 8.13195H0.0202637V10.7886H12.5821C12.4301 12.2459 11.7732 13.5932 10.7369 14.5733C9.70055 15.5533 8.35744 16.0975 6.96401 16.1018H0.0202637V19.2167L12.1617 30.7132L13.851 28.7393L3.31034 18.7584H6.96401C9.02958 18.7552 11.0181 17.9331 12.5332 16.456C14.0483 14.9789 14.9786 12.9553 15.1387 10.7886H20.2203V8.13195H15.1387C14.9938 6.13741 14.1924 4.25846 12.8725 2.81872H20.2203Z" fill="black" fill-opacity="0.9"/>
</svg>
