<svg width="183" height="14" viewBox="0 0 183 14" fill="none" xmlns="http://www.w3.org/2000/svg">
<path d="M17.1565 1.08051L20.3067 5.51021L20.4562 5.72043H20.7142H29.0678L22.7126 7.81014L22.0682 8.02205L22.4614 8.57489L25.1315 12.3295L17.3144 9.72617L17.1565 9.67355L16.9985 9.72617L9.17027 12.3332L11.8028 8.59557L12.19 8.04576L11.552 7.83327L5.20769 5.72043H13.5987H13.8567L14.0062 5.51021L17.1565 1.08051Z" fill="#FFCE31" stroke="#F8BD02"/>
<path d="M54.7379 1.08051L57.8881 5.51021L58.0376 5.72043H58.2956H66.6492L60.2941 7.81014L59.6496 8.02205L60.0428 8.57489L62.7129 12.3295L54.8959 9.72617L54.7379 9.67355L54.5799 9.72617L46.7517 12.3332L49.3842 8.59557L49.7714 8.04576L49.1334 7.83327L42.7891 5.72043H51.1802H51.4381L51.5876 5.51021L54.7379 1.08051Z" fill="#FFCE31" stroke="#F8BD02"/>
<path d="M92.3193 1.08051L95.4695 5.51021L95.619 5.72043H95.877H104.231L97.8755 7.81014L97.231 8.02205L97.6242 8.57489L100.294 12.3295L92.4773 9.72617L92.3193 9.67355L92.1613 9.72617L84.3331 12.3332L86.9656 8.59557L87.3528 8.04576L86.7148 7.83327L80.3705 5.72043H88.7616H89.0196L89.1691 5.51021L92.3193 1.08051Z" fill="#FFCE31" stroke="#F8BD02"/>
<path d="M129.901 1.08051L133.051 5.51021L133.2 5.72043H133.458H141.812L135.457 7.81014L134.812 8.02205L135.206 8.57489L137.876 12.3295L130.059 9.72617L129.901 9.67355L129.743 9.72617L121.915 12.3332L124.547 8.59557L124.934 8.04576L124.296 7.83327L117.952 5.72043H126.343H126.601L126.75 5.51021L129.901 1.08051Z" fill="#FFCE31" stroke="#F8BD02"/>
<path d="M167.482 1.08051L170.632 5.51021L170.782 5.72043H171.04H179.393L173.038 7.81014L172.394 8.02205L172.787 8.57489L175.457 12.3295L167.64 9.72617L167.482 9.67355L167.324 9.72617L159.496 12.3332L162.128 8.59557L162.516 8.04576L161.878 7.83327L155.533 5.72043H163.924H164.182L164.332 5.51021L167.482 1.08051Z" fill="#FFCE31" stroke="#F8BD02"/>
</svg>
