<svg width="183" height="14" viewBox="0 0 183 14" fill="none" xmlns="http://www.w3.org/2000/svg">
<path d="M17.1565 1.17328L20.3067 5.60298L20.4562 5.8132H20.7142H29.0678L22.7126 7.90291L22.0682 8.11482L22.4614 8.66767L25.1315 12.4223L17.3144 9.81894L17.1565 9.76632L16.9985 9.81894L9.17027 12.426L11.8028 8.68834L12.19 8.13853L11.552 7.92604L5.20769 5.8132H13.5987H13.8567L14.0062 5.60298L17.1565 1.17328Z" fill="#FFCE31" stroke="#F8BD02"/>
<path d="M54.7379 1.17328L57.8881 5.60298L58.0376 5.8132H58.2956H66.6492L60.2941 7.90291L59.6496 8.11482L60.0428 8.66767L62.7129 12.4223L54.8959 9.81894L54.7379 9.76632L54.5799 9.81894L46.7517 12.426L49.3842 8.68834L49.7714 8.13853L49.1334 7.92604L42.7891 5.8132H51.1802H51.4381L51.5876 5.60298L54.7379 1.17328Z" fill="#FFCE31" stroke="#F8BD02"/>
<path d="M92.3193 1.17328L95.4695 5.60298L95.619 5.8132H95.877H104.231L97.8755 7.90291L97.231 8.11482L97.6242 8.66767L100.294 12.4223L92.4773 9.81894L92.3193 9.76632L92.1613 9.81894L84.3331 12.426L86.9656 8.68834L87.3528 8.13853L86.7148 7.92604L80.3705 5.8132H88.7616H89.0196L89.1691 5.60298L92.3193 1.17328Z" fill="#FFCE31" stroke="#F8BD02"/>
<path d="M129.901 1.17328L133.051 5.60298L133.2 5.8132H133.458H141.812L135.457 7.90291L134.812 8.11482L135.206 8.66767L137.876 12.4223L130.059 9.81894L129.901 9.76632L129.743 9.81894L121.915 12.426L124.547 8.68834L124.934 8.13853L124.296 7.92604L117.952 5.8132H126.343H126.601L126.75 5.60298L129.901 1.17328Z" fill="#FFCE31" stroke="#F8BD02"/>
<path d="M167.482 1.17328L170.632 5.60298L170.782 5.8132H171.04H179.393L173.038 7.90291L172.394 8.11482L172.787 8.66767L175.457 12.4223L167.64 9.81894L167.482 9.76632L167.324 9.81894L159.496 12.426L162.128 8.68834L162.516 8.13853L161.878 7.92604L155.533 5.8132H163.924H164.182L164.332 5.60298L167.482 1.17328Z" fill="#FFCE31" stroke="#F8BD02"/>
</svg>
