<svg width="183" height="14" viewBox="0 0 183 14" fill="none" xmlns="http://www.w3.org/2000/svg">
<path d="M17.1565 1.68061L20.3067 6.1103L20.4562 6.32053H20.7142H29.0678L22.7126 8.41024L22.0682 8.62215L22.4614 9.17499L25.1315 12.9296L17.3144 10.3263L17.1565 10.2736L16.9985 10.3263L9.17027 12.9333L11.8028 9.19567L12.19 8.64586L11.552 8.43337L5.20769 6.32053H13.5987H13.8567L14.0062 6.1103L17.1565 1.68061Z" fill="#FFCE31" stroke="#F8BD02"/>
<path d="M54.7379 1.68061L57.8881 6.1103L58.0376 6.32053H58.2956H66.6492L60.2941 8.41024L59.6496 8.62215L60.0428 9.17499L62.7129 12.9296L54.8959 10.3263L54.7379 10.2736L54.5799 10.3263L46.7517 12.9333L49.3842 9.19567L49.7714 8.64586L49.1334 8.43337L42.7891 6.32053H51.1802H51.4381L51.5876 6.1103L54.7379 1.68061Z" fill="#FFCE31" stroke="#F8BD02"/>
<path d="M92.3193 1.68061L95.4695 6.1103L95.619 6.32053H95.877H104.231L97.8755 8.41024L97.231 8.62215L97.6242 9.17499L100.294 12.9296L92.4773 10.3263L92.3193 10.2736L92.1613 10.3263L84.3331 12.9333L86.9656 9.19567L87.3528 8.64586L86.7148 8.43337L80.3705 6.32053H88.7616H89.0196L89.1691 6.1103L92.3193 1.68061Z" fill="#FFCE31" stroke="#F8BD02"/>
<path d="M129.901 1.68061L133.051 6.1103L133.2 6.32053H133.458H141.812L135.457 8.41024L134.812 8.62215L135.206 9.17499L137.876 12.9296L130.059 10.3263L129.901 10.2736L129.743 10.3263L121.915 12.9333L124.547 9.19567L124.934 8.64586L124.296 8.43337L117.952 6.32053H126.343H126.601L126.75 6.1103L129.901 1.68061Z" fill="#FFCE31" stroke="#F8BD02"/>
<path d="M167.482 1.68061L170.632 6.1103L170.782 6.32053H171.04H179.393L173.038 8.41024L172.394 8.62215L172.787 9.17499L175.457 12.9296L167.64 10.3263L167.482 10.2736L167.324 10.3263L159.496 12.9333L162.128 9.19567L162.516 8.64586L161.878 8.43337L155.533 6.32053H163.924H164.182L164.332 6.1103L167.482 1.68061Z" stroke="#F8BD02"/>
</svg>
