<svg width="240" height="18" viewBox="0 0 240 18" fill="none" xmlns="http://www.w3.org/2000/svg">
<path d="M22.7578 1.63471L27.0138 7.61929L27.1633 7.82951H27.4213H39.3414L30.0895 10.8718L29.445 11.0837L29.8382 11.6365L33.6141 16.946L22.9158 13.3831L22.7578 13.3305L22.5998 13.3831L11.8904 16.9497L15.6131 11.6642L16.0003 11.1144L15.3623 10.9019L6.13677 7.82951H18.0943H18.3523L18.5018 7.61929L22.7578 1.63471Z" fill="#FFCE31" stroke="#F8BD02"/>
<path d="M72.0198 1.63471L76.2758 7.61929L76.4253 7.82951H76.6833H88.6034L79.3515 10.8718L78.707 11.0837L79.1002 11.6365L82.8761 16.946L72.1778 13.3831L72.0198 13.3305L71.8619 13.3831L61.1524 16.9497L64.8751 11.6642L65.2623 11.1144L64.6243 10.9019L55.3988 7.82951H67.3564H67.6143L67.7638 7.61929L72.0198 1.63471Z" fill="#FFCE31" stroke="#F8BD02"/>
<path d="M121.282 1.63471L125.538 7.61929L125.687 7.82951H125.945H137.866L128.614 10.8718L127.969 11.0837L128.362 11.6365L132.138 16.946L121.44 13.3831L121.282 13.3305L121.124 13.3831L110.415 16.9497L114.137 11.6642L114.524 11.1144L113.886 10.9019L104.661 7.82951H116.619H116.876L117.026 7.61929L121.282 1.63471Z" fill="#FFCE31" stroke="#F8BD02"/>
<path d="M170.544 1.63471L174.8 7.61929L174.95 7.82951H175.208H187.128L177.876 10.8718L177.231 11.0837L177.624 11.6365L181.4 16.946L170.702 13.3831L170.544 13.3305L170.386 13.3831L159.677 16.9497L163.399 11.6642L163.787 11.1144L163.149 10.9019L153.923 7.82951H165.881H166.139L166.288 7.61929L170.544 1.63471Z" fill="#FFCE31" stroke="#F8BD02"/>
<path d="M219.806 1.63471L224.062 7.61929L224.212 7.82951H224.47H236.39L227.138 10.8718L226.493 11.0837L226.887 11.6365L230.662 16.946L219.964 13.3831L219.806 13.3305L219.648 13.3831L208.939 16.9497L212.661 11.6642L213.049 11.1144L212.411 10.9019L203.185 7.82951H215.143H215.401L215.55 7.61929L219.806 1.63471Z" fill="#FFCE31" stroke="#F8BD02"/>
</svg>
