<svg width="12" height="16" viewBox="0 0 12 16" fill="none" xmlns="http://www.w3.org/2000/svg">
<path d="M5.85108 7.99978C6.62257 7.99978 7.37673 7.76519 8.0182 7.32568C8.65967 6.88616 9.15963 6.26147 9.45487 5.53058C9.75011 4.7997 9.82735 3.99545 9.67684 3.21955C9.52633 2.44365 9.15483 1.73094 8.6093 1.17154C8.06378 0.612148 7.36873 0.231195 6.61207 0.0768585C5.8554 -0.077478 5.0711 0.00173309 4.35834 0.304475C3.64557 0.607217 3.03636 1.11989 2.60775 1.77767C2.17913 2.43545 1.95036 3.20879 1.95036 3.99989C1.95139 5.0604 2.36269 6.07717 3.09399 6.82707C3.8253 7.57696 4.81686 7.99872 5.85108 7.99978ZM5.85108 1.3333C6.3654 1.3333 6.86818 1.48969 7.29582 1.7827C7.72347 2.07571 8.05678 2.49217 8.25361 2.97943C8.45043 3.46669 8.50193 4.00285 8.40159 4.52012C8.30125 5.03738 8.05358 5.51253 7.68989 5.88546C7.32621 6.25839 6.86285 6.51235 6.3584 6.61524C5.85396 6.71814 5.33109 6.66533 4.85592 6.4635C4.38074 6.26167 3.9746 5.91989 3.68886 5.48137C3.40311 5.04285 3.2506 4.52729 3.2506 3.99989C3.2506 3.29267 3.52458 2.61441 4.01226 2.11432C4.49994 1.61424 5.16139 1.3333 5.85108 1.3333Z" fill="white" fill-opacity="0.9"/>
<path d="M5.85108 9.33352C4.2998 9.33528 2.81256 9.96797 1.71564 11.0928C0.618724 12.2176 0.00172077 13.7426 0 15.3334C0 15.5102 0.0684945 15.6797 0.190416 15.8047C0.312337 15.9298 0.477697 16 0.65012 16C0.822542 16 0.987902 15.9298 1.10982 15.8047C1.23174 15.6797 1.30024 15.5102 1.30024 15.3334C1.30024 14.0957 1.7797 12.9088 2.63315 12.0336C3.4866 11.1585 4.64412 10.6668 5.85108 10.6668C7.05803 10.6668 8.21556 11.1585 9.069 12.0336C9.92245 12.9088 10.4019 14.0957 10.4019 15.3334C10.4019 15.5102 10.4704 15.6797 10.5923 15.8047C10.7142 15.9298 10.8796 16 11.052 16C11.2245 16 11.3898 15.9298 11.5117 15.8047C11.6337 15.6797 11.7022 15.5102 11.7022 15.3334C11.7004 13.7426 11.0834 12.2176 9.98651 11.0928C8.8896 9.96797 7.40235 9.33528 5.85108 9.33352Z" fill="white" fill-opacity="0.9"/>
</svg>
