<svg width="12" height="16" viewBox="0 0 12 16" fill="none" xmlns="http://www.w3.org/2000/svg">
<path d="M5.99983 7.99978C6.79094 7.99978 7.56427 7.76519 8.22205 7.32568C8.87983 6.88616 9.39251 6.26147 9.69525 5.53058C9.99799 4.7997 10.0772 3.99545 9.92286 3.21955C9.76853 2.44365 9.38758 1.73094 8.82818 1.17154C8.26879 0.612148 7.55607 0.231195 6.78017 0.0768585C6.00427 -0.077478 5.20003 0.00173309 4.46914 0.304475C3.73826 0.607217 3.11356 1.11989 2.67405 1.77767C2.23453 2.43545 1.99994 3.20879 1.99994 3.99989C2.001 5.0604 2.42276 6.07717 3.17265 6.82707C3.92255 7.57696 4.93932 7.99872 5.99983 7.99978ZM5.99983 1.3333C6.52724 1.3333 7.04279 1.48969 7.48131 1.7827C7.91983 2.07571 8.26161 2.49217 8.46344 2.97943C8.66527 3.46669 8.71808 4.00285 8.61519 4.52012C8.5123 5.03738 8.25833 5.51253 7.8854 5.88546C7.51247 6.25839 7.03733 6.51235 6.52006 6.61524C6.00279 6.71814 5.46663 6.66533 4.97937 6.4635C4.49212 6.26167 4.07565 5.91989 3.78264 5.48137C3.48963 5.04285 3.33324 4.52729 3.33324 3.99989C3.33324 3.29267 3.61418 2.61441 4.11427 2.11432C4.61435 1.61424 5.29261 1.3333 5.99983 1.3333Z" fill="white" fill-opacity="0.9"/>
<path d="M5.99983 9.33352C4.40912 9.33528 2.88406 9.96797 1.75926 11.0928C0.634454 12.2176 0.00176452 13.7426 0 15.3334C0 15.5102 0.0702359 15.6797 0.195257 15.8047C0.320277 15.9298 0.489842 16 0.666648 16C0.843454 16 1.01302 15.9298 1.13804 15.8047C1.26306 15.6797 1.3333 15.5102 1.3333 15.3334C1.3333 14.0957 1.82495 12.9088 2.70009 12.0336C3.57524 11.1585 4.76219 10.6668 5.99983 10.6668C7.23747 10.6668 8.42443 11.1585 9.29957 12.0336C10.1747 12.9088 10.6664 14.0957 10.6664 15.3334C10.6664 15.5102 10.7366 15.6797 10.8616 15.8047C10.9866 15.9298 11.1562 16 11.333 16C11.5098 16 11.6794 15.9298 11.8044 15.8047C11.9294 15.6797 11.9997 15.5102 11.9997 15.3334C11.9979 13.7426 11.3652 12.2176 10.2404 11.0928C9.1156 9.96797 7.59055 9.33528 5.99983 9.33352Z" fill="white" fill-opacity="0.9"/>
</svg>
