<svg width="31" height="24" viewBox="0 0 31 24" fill="none" xmlns="http://www.w3.org/2000/svg">
<path d="M5.12653 0.1875C2.30648 0.1875 0.0203857 2.51343 0.0203857 5.38262V18.3706C0.0203857 21.2396 2.30648 23.5657 5.12653 23.5657H17.8919C20.6158 23.5657 22.8413 21.3957 22.9901 18.6625L28.7409 22.0908C29.1356 22.3261 29.624 22.3285 30.021 22.097C30.418 21.8656 30.6629 21.4357 30.6629 20.9702V2.78301C30.6629 2.31797 30.4186 1.88841 30.0221 1.65678C29.6258 1.42516 29.1379 1.42682 28.7432 1.66115L22.9894 5.07585C22.8334 2.34948 20.6107 0.1875 17.8919 0.1875H5.12653ZM2.57346 5.38262C2.57346 3.94804 3.71652 2.78506 5.12653 2.78506H17.8919C19.3019 2.78506 20.445 3.94804 20.445 5.38262V18.3706C20.445 19.8049 19.3019 20.9681 17.8919 20.9681H5.12653C3.71652 20.9681 2.57346 19.8049 2.57346 18.3706V5.38262ZM22.9983 15.6566V8.07775L28.1098 5.04419V18.7038L22.9983 15.6566Z" fill="black"/>
</svg>
